# xmcd CD database file
#
# Track frame offsets:
#	150
#	12757
#	24550
#	36537
#	49350
#	62329
#	76868
#	88239
#	100667
#	110637
#
# Disc length: 1624 seconds
#
# Revision: 0
# Processed by: cddbd v1.5.2PL0 Copyright (c) Steve Scherf et al.
# Submitted via: CDex 1.70beta2
#
DISCID=7906560a
DTITLE=Wes St. Jon - Oilfield Cowboy
DYEAR=2004
DGENRE=Country
TTITLE0=Oilfield Cowboy
TTITLE1=Oilfield Hands
TTITLE2=Oilfield Trash and Proud Of It
TTITLE3=Story Of The Derrick Man, Toolpusher, Roustabout, Roughneck, Driller and The Company Man, The
TTITLE4=Oilfield Outlaw
TTITLE5=I'm A Roughneck
TTITLE6=Roustabout
TTITLE7=Oilfield Class
TTITLE8=Oilfield Trucker
TTITLE9=Service Hands
EXTD=YEAR: 2004
EXTT0=
EXTT1=
EXTT2=
EXTT3=
EXTT4=
EXTT5=
EXTT6=
EXTT7=
EXTT8=
EXTT9=
PLAYORDER=
